<svg xmlns="http://www.w3.org/2000/svg" width="86" height="30" viewBox="0 0 86 30">
    <g fill="none" fill-rule="evenodd">
        <path fill="#E2050B" d="M4.258 0v12.242H6.92V1.858zM6.92 18.097H4.257v5.328L6.92 26.08zM11.71 9.847L9.048 7.984v4.258h2.662zM9.048 18.097v9.847l1.331 1.33 1.33-1.33v-9.847zM15.968 9.804l-2.662-1.82V26.08l2.662-2.608zM20.758 6.084l-2.661-1.826v17.565l2.661-2.62z"/>
        <path fill="#E2050B" d="M0 13.839v5.29l2.656 2.694v-5.291h9.054v-2.693z"/>
        <path fill="#000" d="M28.258 17.852a2.066 2.066 0 0 0 .41 1.203c.148.191.33.356.558.484.23.133.506.197.841.197.34 0 .628-.064.857-.197.234-.128.42-.293.564-.484.144-.192.245-.4.31-.623.058-.229.09-.431.09-.607 0-.223-.038-.452-.112-.676a1.878 1.878 0 0 0-.34-.612 1.766 1.766 0 0 0-.576-.442c-.234-.111-.5-.17-.809-.17-.314 0-.58.059-.803.181-.224.123-.41.277-.56.463-.148.192-.255.4-.324.623a2.062 2.062 0 0 0-.106.66zm5.807 3.715h-2.177v-.809h-.027a1.77 1.77 0 0 1-.367.474c-.15.133-.32.245-.511.335-.192.09-.394.154-.607.197a3.751 3.751 0 0 1-.639.059c-.575 0-1.09-.107-1.543-.325a3.3 3.3 0 0 1-1.15-.873 3.971 3.971 0 0 1-.713-1.272 4.667 4.667 0 0 1-.25-1.528c0-.612.1-1.165.303-1.655.197-.495.463-.915.798-1.261.33-.346.719-.613 1.16-.794a3.544 3.544 0 0 1 1.395-.276 2.762 2.762 0 0 1 1.416.357 1.965 1.965 0 0 1 .708.692h.027v-.794h2.177v7.473zM39.605 19.672c.293 0 .554-.053.777-.16a1.76 1.76 0 0 0 .575-.425c.16-.176.282-.378.362-.607a1.914 1.914 0 0 0 .01-1.352 2.05 2.05 0 0 0-.35-.607 1.766 1.766 0 0 0-1.374-.617c-.298 0-.564.058-.793.176-.229.111-.42.26-.575.441a1.971 1.971 0 0 0-.346 1.959c.086.229.208.431.368.607.154.18.346.32.575.426.223.106.484.16.771.16zm-3.944-5.578h2.065v.81h.043c.218-.283.516-.533.884-.746.372-.213.84-.32 1.405-.32.654 0 1.208.128 1.66.39.453.255.825.58 1.113.979.287.393.495.83.623 1.304.127.473.191.926.191 1.352 0 .532-.09 1.032-.266 1.506a3.72 3.72 0 0 1-.74 1.23c-.32.35-.697.627-1.134.835a3.376 3.376 0 0 1-1.437.303c-.335 0-.622-.032-.867-.106a3.342 3.342 0 0 1-.634-.25 2.191 2.191 0 0 1-.441-.298 4.278 4.278 0 0 1-.266-.261v3.13H35.66v-9.858zM48.654 19.672c.292 0 .553-.053.777-.16a1.76 1.76 0 0 0 .575-.425c.16-.176.282-.378.362-.607a1.914 1.914 0 0 0 .01-1.352 2.05 2.05 0 0 0-.351-.607 1.766 1.766 0 0 0-1.373-.617c-.298 0-.564.058-.793.176-.23.111-.42.26-.575.441a1.971 1.971 0 0 0-.346 1.959c.085.229.207.431.367.607.154.18.346.32.575.426.223.106.484.16.772.16zm-3.944-5.578h2.065v.81h.042c.219-.283.517-.533.884-.746.373-.213.84-.32 1.405-.32.655 0 1.208.128 1.66.39.453.255.826.58 1.113.979.288.393.495.83.623 1.304.128.473.192.926.192 1.352 0 .532-.09 1.032-.267 1.506a3.72 3.72 0 0 1-.74 1.23c-.319.35-.697.627-1.133.835a3.376 3.376 0 0 1-1.437.303c-.336 0-.623-.032-.868-.106a3.342 3.342 0 0 1-.633-.25 2.191 2.191 0 0 1-.442-.298 4.278 4.278 0 0 1-.266-.261v3.13H44.71v-9.858zM53.63 15.435l-.404-3.725h2.129l-.415 3.725zM56.42 14.084h2.086v.766h.026c.054-.085.128-.186.224-.303.096-.117.218-.23.378-.33a2.22 2.22 0 0 1 .585-.267c.23-.074.517-.111.847-.111.356 0 .713.058 1.07.18.356.123.633.272.84.442.102.086.203.187.304.304.101.117.197.266.277.452.08.181.149.4.202.655.053.255.08.559.08.915v4.503h-2.236v-3.933c0-.128-.005-.277-.021-.447-.01-.17-.053-.33-.128-.49a.961.961 0 0 0-.34-.394c-.16-.106-.384-.165-.682-.165-.324 0-.57.059-.74.176-.17.117-.298.255-.377.415-.08.165-.128.325-.139.495-.016.17-.021.309-.021.42v3.923h-2.236v-7.206zM64.808 15.435l-.405-3.725h2.13l-.416 3.725zM67.065 14.084h1.958v.766h.022c.042-.085.1-.186.175-.303a1.49 1.49 0 0 1 .309-.33c.128-.107.298-.192.5-.267.208-.074.458-.111.761-.111v2.166c-.245.01-.463.032-.665.07a1.327 1.327 0 0 0-.522.19.937.937 0 0 0-.335.405 1.57 1.57 0 0 0-.122.66v3.96h-2.081v-7.206zM73.537 17.83c0 .272.048.522.143.756.091.235.224.437.384.607.165.165.356.293.57.389.212.096.441.143.68.143.24 0 .469-.047.682-.143.213-.096.404-.224.57-.389.159-.17.292-.372.383-.607a1.97 1.97 0 0 0 .143-.755 1.97 1.97 0 0 0-.143-.756 1.87 1.87 0 0 0-.384-.607 1.898 1.898 0 0 0-.57-.388 1.647 1.647 0 0 0-.68-.144c-.24 0-.469.048-.682.144a1.898 1.898 0 0 0-.57.388 1.87 1.87 0 0 0-.383.607 1.97 1.97 0 0 0-.143.756zm-2.214 0c0-.457.08-.925.244-1.4.165-.473.416-.904.746-1.287a3.69 3.69 0 0 1 1.24-.937c.5-.245 1.086-.367 1.762-.367.675 0 1.261.122 1.761.367.5.24.916.554 1.24.937.33.383.58.814.746 1.288.165.474.244.942.244 1.4 0 .457-.08.926-.244 1.4a3.959 3.959 0 0 1-.746 1.288 3.69 3.69 0 0 1-1.24.936c-.5.245-1.086.368-1.761.368-.676 0-1.262-.123-1.762-.368a3.69 3.69 0 0 1-1.24-.936 3.959 3.959 0 0 1-.746-1.289 4.24 4.24 0 0 1-.244-1.4zM79.839 21.823h2.129V11.71h-2.13zM83.565 21.823h2.129V11.71h-2.13z"/>
    </g>
</svg>
